<?xml version="1.0" encoding="utf-8"?>
<!-- Generator: Adobe Illustrator 27.2.0, SVG Export Plug-In . SVG Version: 6.00 Build 0)  -->
<svg version="1.1" id="Capa_1" xmlns="http://www.w3.org/2000/svg" xmlns:xlink="http://www.w3.org/1999/xlink" x="0px" y="0px"
	 viewBox="0 0 3553.8 3192.3" style="enable-background:new 0 0 3553.8 3192.3;" xml:space="preserve">
<style type="text/css">
	.st0{fill:#0C3449;}
	.st1{fill:#0C678E;}
	.st2{fill:#FEE2C5;}
	.st3{fill:#241120;}
	.st4{fill:#5E5861;}
	.st5{fill:#FFFFFF;}
	.st6{fill:#8B8D93;}
	.st7{fill:#ECA481;}
</style>
<g>
	<path class="st0" d="M959.8,1610.3l64.6-69.8c-2.4-35.8-4.9-71.6-7.3-107.5c-1.7-23.9,3.1-41,15-53.8
		c43.6-46.6,87-93.5,130.4-140.3l0,0.2l220.7-237.9c-33.8,42-61,88-80.7,138.5c-7.2,18.3-12.6,37.3-18.1,56
		c-2.6,8.6-4.1,17.3-5.4,25.9c-1.6,10.1-2.7,20.1-3.9,30.2l-137.7,139c-17.4,18.7-34.7,37.4-52.1,56.1c-3.7,4.1-4.7,8.3-4.3,15.6
		c3.3,46.6,6.3,93,9.5,139.5l0.4,0c3.1,46.6,6.3,93,9.2,139.5c0.4,7.8,2.3,12,6.6,15.4c17.5,14.3,35,28.6,52.5,43.1
		c-0.1,1.3-0.1,2.5-0.2,3.8c-1.2,38.7,6.7,72.7,21.8,103.8c5.8,11.9,13,21.8,21,29.7c2.7,2.7,5.5,5.3,8.2,7.6l0.4,6.6
		c-49.4-40.7-98.7-81.5-148.2-121.8c-13.4-10.9-20.2-27.3-21.8-50.7c-2.4-36.2-4.7-72.3-7.2-108.3L959.8,1610.3z"/>
	<path class="st0" d="M2569,1610.3l-64.6-69.8c2.4-35.8,4.9-71.6,7.3-107.5c1.7-23.9-3.1-41-15-53.8c-43.6-46.6-87-93.5-130.4-140.3
		l0,0.2l-220.7-237.9c33.8,42,61,88,80.7,138.5c7.2,18.3,12.6,37.3,18.1,56c2.6,8.6,4.1,17.3,5.4,25.9c1.6,10.1,2.7,20.1,3.9,30.2
		l137.7,139c17.4,18.7,34.7,37.4,52.1,56.1c3.7,4.1,4.7,8.3,4.3,15.6c-3.3,46.6-6.3,93-9.5,139.5l-0.4,0c-3.1,46.6-6.3,93-9.2,139.5
		c-0.4,7.8-2.3,12-6.6,15.4c-17.5,14.3-35,28.6-52.5,43.1c0.1,1.3,0.1,2.5,0.2,3.8c1.2,38.7-6.7,72.7-21.8,103.8
		c-5.8,11.9-13,21.8-21,29.7c-2.7,2.7-5.5,5.3-8.2,7.6l-0.4,6.6c49.4-40.7,98.7-81.5,148.2-121.8c13.4-10.9,20.2-27.3,21.8-50.7
		c2.4-36.2,4.7-72.3,7.2-108.3L2569,1610.3z"/>
	<path class="st1" d="M425.1,2303.9h42.3l44-40.1l13.7-52.5h84.2l-20.1,77.6l-63.8,53.8l38.1,45.4l-20.1,77.2h-84.9l13.7-53.4
		l-23.3-37.9h-42.6l-23.6,91.3H299l65.9-254h84.2L425.1,2303.9z"/>
	<path class="st1" d="M785.9,2398.7l39.8,66.6h-97.3l-46.9-80.3h-7l-20.8,80.3h-84.2l65.9-254h211.1c4.2,0,8.3,0.7,12.2,2.2
		c3.9,1.5,7,3.8,9.5,6.8s4.1,7,4.9,11.7c0.8,4.7,0.4,10.1-1.2,16.3l-29.6,113.3c-1.6,6.2-4.1,11.6-7.4,16.3
		c-3.3,4.7-6.9,8.6-10.9,11.7c-4,3.1-8.3,5.4-12.9,6.8c-4.6,1.5-9,2.2-13.2,2.2H785.9z M700.6,2284.5l-20.8,79.8
		c12-15,24.3-25.1,37-30.4c12.7-5.3,25.5-7.9,38.4-7.9h12.3l10.6-41.5H700.6z"/>
	<path class="st1" d="M841.6,2465.3l65.9-254h84.2l-65.9,254H841.6z"/>
	<path class="st1" d="M1070.2,2333.9c5.6-7.3,11.5-13.2,17.6-17.6c6.1-4.4,12.3-7.6,18.5-9.7c6.2-2.1,12.5-3.4,18.8-4
		c6.3-0.6,12.8-0.9,19.4-0.9h43.3c4.2,0,8.3,0.9,12.3,2.6c4,1.8,7.3,4.3,9.9,7.7c2.6,3.4,4.3,7.6,5.3,12.6c0.9,5,0.6,10.6-1.1,16.8
		l-21.8,84.2c-1.6,6.2-4.1,11.8-7.4,16.8c-3.3,5-7,9.2-11.3,12.6c-4.2,3.4-8.7,6-13.4,7.7c-4.7,1.8-9.3,2.6-13.7,2.6H951.9l19-72.8
		h146.2l4.6-18.1h-109.2c-4.2,0-8.3-0.9-12.3-2.6c-4-1.8-7.3-4.3-10-7.7c-2.7-3.4-4.5-7.6-5.5-12.6c-0.9-5-0.6-10.6,1.1-16.8
		l21.8-83.8c1.6-6.2,4.1-11.7,7.4-16.8c3.3-5,7-9.2,11.3-12.6c4.2-3.4,8.7-6,13.4-7.7c4.7-1.8,9.3-2.6,13.7-2.6h194.8l-18.7,72.8
		h-146.2L1070.2,2333.9z"/>
	<path class="st1" d="M1274.3,2211.3h229l-19,73.2h-72.6l-46.9,180.8h-84.2l46.9-180.8h-72.2L1274.3,2211.3z"/>
	<path class="st1" d="M1463.5,2465.3l65.9-254h84.2l-65.9,254H1463.5z"/>
	<path class="st1" d="M1829.2,2465.3H1745l17.3-66.6h-87l-17.3,66.6h-84.2l55.7-214.3c1.6-6.2,4.2-11.7,7.8-16.8
		c3.5-5,7.5-9.2,11.8-12.6c4.3-3.4,9-6,13.9-7.7c4.9-1.8,9.5-2.6,13.7-2.6h181.5c4.2,0,8.3,0.9,12.3,2.6c4,1.8,7.3,4.3,10,7.7
		c2.7,3.4,4.5,7.6,5.5,12.6c0.9,5,0.6,10.6-1.1,16.8L1829.2,2465.3z M1704.8,2284.5l-21.1,81.1c12-15,24.4-25.4,37.2-31.1
		c12.8-5.7,25.7-8.6,38.6-8.6h21.8l10.6-41.5H1704.8z"/>
	<path class="st1" d="M1921.2,2211.3h73.3l64.1,109.8l28.5-109.8h84.2l-65.9,254h-73.3l-64.1-109.8l-28.5,109.8h-84.2L1921.2,2211.3
		z"/>
	<path class="st1" d="M2141.7,2425.6l45.5-174.6c1.6-6.2,4.2-11.7,7.8-16.8c3.5-5,7.5-9.2,11.8-12.6c4.3-3.4,9-6,13.9-7.7
		c4.9-1.8,9.5-2.6,13.7-2.6h175.8c4.2,0,8.3,0.9,12.3,2.6c4,1.8,7.3,4.3,10,7.7c2.7,3.4,4.5,7.6,5.5,12.6c0.9,5,0.6,10.6-1.1,16.8
		l-17.3,67h-84.2l8.5-33.5h-81.4l-27.8,107.6h81.4l8.8-34h84.2l-17.6,67.5c-1.6,6.2-4.2,11.8-7.8,16.8c-3.5,5-7.5,9.2-12,12.6
		c-4.5,3.4-9.1,6-13.9,7.7s-9.3,2.6-13.6,2.6h-175.8c-4.2,0-8.3-0.9-12.3-2.6s-7.3-4.3-10-7.7c-2.7-3.4-4.5-7.6-5.5-12.6
		C2139.7,2437.4,2140.1,2431.8,2141.7,2425.6z"/>
	<path class="st1" d="M2454.3,2284.5l19-73.2h218.5c4.2,0,8.3,0.9,12.3,2.6c4,1.8,7.3,4.3,10,7.7c2.7,3.4,4.5,7.6,5.5,12.6
		c0.9,5,0.6,10.6-1.1,16.8l-45.5,174.6c-1.6,6.2-4.2,11.8-7.8,16.8c-3.5,5-7.5,9.2-12,12.6c-4.5,3.4-9.1,6-13.9,7.7
		s-9.3,2.6-13.6,2.6h-218.5l40.2-155.2h84.2l-21.1,82h87l27.8-107.6H2454.3z"/>
	<path class="st1" d="M2754.8,2211.3h229l-19,73.2H2820l-4.9,19.4h118l-44.4,69.7h-91.6l-4.9,18.5H2937l-19,73.2h-229L2754.8,2211.3
		z"/>
	<path class="st1" d="M3089.6,2211.3l8.8,120.4l71.5-120.4h84.9l-154.3,254h-73.3l-22.6-254H3089.6z"/>
	<g>
		<g>
			<path class="st2" d="M2042.8,1387.1l5.4-9.5l-5.3-58.3l-21.7-70.9l-32.7-38l-31-30l-16.8-10.5l-62,17.3
				c-18.6-13.5-37.3-21.4-57.3-32.6c-46-24.7-94.8-46.1-142.3-67.6c-8.2-2.7-16.9-10.7-24.7-3.8c-19.7,15.9-38.2,35.2-53.5,55.9
				l0-6.1l-37.7,41.8l-71,122.3l-13.7,66.9l13.7,47.7l4.6,1.5c4.7,12.8,12.7,24.2,22.3,34.4c17.1,17.3,42.4,24.8,65.5,29.9
				c33.4,6.9,68.1,13.7,102.2,15.5c15.8,0.8,33.1,2.3,48.5-1.1c9.2-1.8,19-5,28.3-5.3c15.1,0,28.1,7.6,43.1,6.1
				c14.5-1.4,28.4-5.6,43-6.4c19.3-0.9,37.1-6.2,56.1-9.1c20.5-3.3,40.9-7.4,61-12.6c18.3-4.9,38.2-11.5,52.6-24.2
				c15.3-14.1,25.8-33.1,24.8-54.4C2043.6,1386.4,2043.2,1386.8,2042.8,1387.1z"/>
			<g>
				<path class="st3" d="M1995,1373.6c0,0.3-0.1,0.5-0.1,0.8c-0.1,0.9-0.4,2.2-0.4,1.8c0.1-0.5,0.2-1,0.3-1.5
					C1994.9,1374.3,1994.9,1373.9,1995,1373.6z"/>
				<path class="st3" d="M2190.7,1330.5c-7-69.6-19.9-138.5-37.3-206c-18.5-71.2-41.8-144.4-76.3-209.4
					c-23.1-43.2-53.1-81.3-93.8-109.1c-29.1-20.1-61.9-33.7-96.2-42c-13.8-2.9-20.6-12.6-32.8-19.2c-25.8-14.9-58.5-18.7-87.7-17.6
					c-29.4,1.6-57.6,8.6-80.9,27.3c-8.1,7.2-17.9,9.3-28.2,11.7c-49.2,12.7-95.1,38.4-130.6,75c-29.6,29.4-49.9,64.2-67.5,101.7
					c-27.1,57.6-47.9,119.1-65.7,180.3c-19,65.3-33.4,132.1-43.6,199.5c-3.2,19.9-4.1,40-2.3,60.1c4.5,51.1,28,99.6,65.1,135.3
					c24.9,24.5,56.2,42.8,88.3,58.3l1.4-1.5c0,0,46.3,26.9,122.6,45.7c2-9.2,4-18.7,4.1-19.3c0-0.1,6,0.8,6.5,0.9
					c3.3,0.5,5.4,1.8,8.6,3.3c33.8,16.4,72.7,21.7,109.9,21.6c37.9-0.1,75.9-6.2,112.2-16.5c2.7-0.8,30.2-9,30.2-9.2
					c2.8,7,5.2,14.3,7.2,21.7c40.2-9.3,82-23.3,125-43.4c0.4-0.2,0.7-0.4,1.1-0.5c6-2.9,12-5.8,17.9-8.8c1.6-0.8,3.2-1.6,4.8-2.5
					c12.7-6.6,25.1-13.7,37.1-22c32.3-21.9,59.6-50.4,77.5-85.4C2187.7,1420.4,2195.9,1375,2190.7,1330.5z M2040.8,1387.9
					c-0.2,4.7-0.6,9.4-1,14c-1.1,11.7-3.2,23.8-10.3,33.1c-7.2,9.3-18.4,14.4-29.3,18.7c-116.4,46.3-246,48.4-370.4,33.7
					c-40.4-4.8-83.9-12.9-111.7-42.5c-19.9-21.2-28.9-51.1-29-80.3c-0.1-29.1,8-57.7,18.4-84.9c24.3-63.2,61.9-121,108.1-170.5
					c11.4-12.2,24.7-24.6,41.3-25.8c14.1-1.1,27.3,6.2,39.9,12.6c66.5,33.5,144.8,48.4,197.7,100.9c5.3-12.4,7-26.2,5-39.5
					c0.1,0.9,23.3,7.3,25.8,8.3c8.7,3.6,17.1,8,25.1,13c16,10,30.3,22.7,42.1,37.4c25.8,31.9,39.3,74.4,45.3,114.5
					C2040.7,1349.5,2041.7,1368.7,2040.8,1387.9z"/>
				<path class="st3" d="M1587.9,1157.7c0.7,0.2,1.4,0.7,2,0.9c3.6-5,7.2-10.2,10.8-15.1C1596.5,1148.2,1592.2,1153,1587.9,1157.7z"
					/>
				<path class="st3" d="M1587.9,1157.7c0.7,0.2,1.4,0.7,2,0.9c3.6-5,7.2-10.2,10.8-15.1C1596.5,1148.2,1592.2,1153,1587.9,1157.7z"
					/>
				<path class="st3" d="M1501.2,1419.3c-0.5-1.4-1.1-3.4-1.8-5.6c-0.5-2.3-1.1-4.7-1.8-7.7c-2-3.8-3.6-7.5-4.7-11.5
					c0.5,2.9,0.9,5.6,1.6,8.4c0.7,2.9,1.4,5.4,2.3,8.1c0.9,2.3,1.8,4.3,2.9,6.6c0.5,1.4,1.1,2.7,2,4.1c0,0.2,0.2,0.5,0.2,0.7
					c0.2,0.2,0.5,0.5,0.5,0.7h0.2C1502.3,1422,1501.9,1420.9,1501.2,1419.3z"/>
				<path class="st3" d="M1587.9,1157.7c0.7,0.2,1.4,0.7,2,0.9c3.6-5,7.2-10.2,10.8-15.1C1596.5,1148.2,1592.2,1153,1587.9,1157.7z"
					/>
				<path class="st3" d="M1501.2,1419.3c-0.5-1.4-1.1-3.4-1.8-5.6c-0.5-2.3-1.1-4.7-1.8-7.7c-2-3.8-3.6-7.5-4.7-11.5
					c0.5,2.9,0.9,5.6,1.6,8.4c0.7,2.9,1.4,5.4,2.3,8.1c0.9,2.3,1.8,4.3,2.9,6.6c0.5,1.4,1.1,2.7,2,4.1c0,0.2,0.2,0.5,0.2,0.7
					c0.2,0.2,0.5,0.5,0.5,0.7h0.2C1502.3,1422,1501.9,1420.9,1501.2,1419.3z"/>
				<path class="st3" d="M1501.2,1419.3c-0.5-1.4-1.1-3.4-1.8-5.6c-0.5-2.3-1.1-4.7-1.8-7.7c-2-3.8-3.6-7.5-4.7-11.5
					c0.5,2.9,0.9,5.6,1.6,8.4c0.7,2.9,1.4,5.4,2.3,8.1c0.9,2.3,1.8,4.3,2.9,6.6c0.5,1.4,1.1,2.7,2,4.1c0,0.2,0.2,0.5,0.2,0.7
					c0.2,0.2,0.5,0.5,0.5,0.7h0.2C1502.3,1422,1501.9,1420.9,1501.2,1419.3z"/>
				<path class="st3" d="M1501.2,1419.3c-0.5-1.4-1.1-3.4-1.8-5.6c-0.5-2.3-1.1-4.7-1.8-7.7c-2-3.8-3.6-7.5-4.7-11.5
					c0.5,2.9,0.9,5.6,1.6,8.4c0.7,2.9,1.4,5.4,2.3,8.1c0.9,2.3,1.8,4.3,2.9,6.6c0.5,1.4,1.1,2.7,2,4.1c0.2,0.5,0.5,0.9,0.7,1.4h0.2
					C1502.3,1422,1501.9,1420.9,1501.2,1419.3z"/>
				<path class="st3" d="M1501.2,1419.3c-0.5-1.4-1.1-3.4-1.8-5.6c-0.5-2.3-1.1-4.7-1.8-7.7c-2-3.8-3.6-7.5-4.7-11.5
					c0.5,2.9,0.9,5.6,1.6,8.4c0.7,2.9,1.4,5.4,2.3,8.1c0.9,2.3,1.8,4.3,2.9,6.6c0.5,1.4,1.1,2.7,2,4.1c0,0.2,0.2,0.5,0.2,0.7
					c0.2,0.2,0.5,0.5,0.5,0.7h0.2C1502.3,1422,1501.9,1420.9,1501.2,1419.3z"/>
				<path class="st3" d="M1501.2,1419.3c-0.5-1.4-1.1-3.4-1.8-5.6c-0.5-2.3-1.1-4.7-1.8-7.7c-2-3.8-3.6-7.5-4.7-11.5
					c0.5,2.9,0.9,5.6,1.6,8.4c0.7,2.9,1.4,5.4,2.3,8.1c0.9,2.3,1.8,4.3,2.9,6.6c0.5,1.4,1.1,2.7,2,4.1c0,0.2,0.2,0.5,0.2,0.7
					c0.2,0.2,0.5,0.5,0.5,0.7h0.2C1502.3,1422,1501.9,1420.9,1501.2,1419.3z"/>
				<path class="st3" d="M1501.2,1419.3c-0.5-1.4-1.1-3.4-1.8-5.6c-0.5-2.3-1.1-4.7-1.8-7.7c-2-3.8-3.6-7.5-4.7-11.5
					c0.5,2.9,0.9,5.6,1.6,8.4c0.7,2.9,1.4,5.4,2.3,8.1c0.9,2.3,1.8,4.3,2.9,6.6c0.5,1.4,1.1,2.7,2,4.1c0,0.2,0.2,0.5,0.2,0.7
					c0.2,0.2,0.5,0.5,0.5,0.7h0.2C1502.3,1422,1501.9,1420.9,1501.2,1419.3z"/>
				<path class="st3" d="M1587.9,1157.7c0.7,0.2,1.4,0.7,2,0.9c3.6-5,7.2-10.2,10.8-15.1C1596.5,1148.2,1592.2,1153,1587.9,1157.7z"
					/>
				<path class="st3" d="M1587.9,1157.7c0.7,0.2,1.4,0.7,2,0.9c3.6-5,7.2-10.2,10.8-15.1C1596.5,1148.2,1592.2,1153,1587.9,1157.7z"
					/>
				<path class="st1" d="M1779,753.9c25.4-0.5,50.2,3.6,71,19.2c-20.6-1-41.2-2.6-61.7-4.9c-24-2.7-46.7-1-71-1.7
					C1737,758.4,1757.8,755.1,1779,753.9L1779,753.9z"/>
				<path class="st1" d="M1766.7,783.2c57.8-4.8,117.3,0.8,170.1,26.2c43.4,20.9,79.1,54.9,104.3,95.7c26.5,43.3,45.3,91,61.7,138.9
					c32.3,98.9,54.5,200.8,63.2,304.6c2.5,56.3-20.3,114.6-62.3,152.7c-22.6,21.1-48.8,35.6-76.2,49.6c-23.2,11.9-48,18.7-73.4,24
					c18.7-11.5,37.2-23.3,54.7-36.6c48.1-36.4,90.9-78.5,112.7-136.1c11.1-28.4,13.5-58.4,4.8-87.8c-26.2-91.6-79.8-176.1-148-242.2
					c-29.6-27.8-63-52.3-100.3-68.7c-51.3-23.3-110.7-29.4-165.6-16.7c-56.3,13.4-103.9,49.2-143.3,90.2
					c-67.9,73.2-121.1,161.1-153.5,255.6c-10.4,27.9-8.8,57.8,1.2,85.5c13.8,40.6,41.5,71.5,71.8,100.8
					c15.4,15.6,33.3,27.6,50.4,41.2c-50.1-16.5-98.9-47.2-130.4-90c-28.5-40.3-39.1-91.6-31.5-140.2
					c11.5-77.8,29.4-154.7,52.8-229.7c12.9-42.8,28.3-84.9,46.2-125.8c12.8-28.4,27.1-58,45.6-83.2c18.5-25.3,40.8-47.5,67.3-64.5
					c34.8-22.2,74.4-35.1,115.1-40.9C1724.8,783,1745.5,785.2,1766.7,783.2L1766.7,783.2z"/>
				<path class="st4" d="M1800,1018.5c53.5,5.7,103.9,35.3,145,68.7c17.2,14.6,34.3,25.4,47.1,44c-11.5-0.1-22.7-1.3-33.8-4.4
					c-31.4-8.6-62.2-19.7-93.2-29.9c-25.2-8.3-48.9-17.5-74.6-23.6c17.9,23,42.8,37.6,61.8,59.7c-60-32.3-121.8-60.8-183.2-90.1
					c14.2-7.1,28.6-13.5,43.7-18.3C1739.7,1015.4,1771.8,1017.3,1800,1018.5L1800,1018.5z"/>
				<path class="st5" d="M1995,1373.6c0,0.3-0.1,0.5-0.1,0.8c-0.1,0.9-0.4,2.2-0.4,1.8c0.1-0.5,0.2-1,0.3-1.5
					C1994.9,1374.3,1994.9,1373.9,1995,1373.6z"/>
				<path class="st1" d="M1478.5,1483.9c18.1,7.3,35.5,15.9,54,22.2c34.9,12,71.1,21.4,106.9,31.5c43.3,11.2,92.8,22.6,129.9,48.7
					c37.7-31.7,86.6-43.4,133-56.3c47.7-12,95-24.7,140.7-42.9c-18.2,17.5-38,33.3-58.6,47.9c-61.6,42.5-132,65.8-205.5,77.2
					c-18,2.2-37.2-2.9-55-6.3c-38.4-7.5-76.6-17.8-113.4-31.1C1559.9,1557.4,1514.4,1523,1478.5,1483.9L1478.5,1483.9z"/>
				<path class="st6" d="M1786.5,1624.7v0.7h-1.1C1785.8,1625.1,1786.1,1624.9,1786.5,1624.7z"/>
			</g>
			<path class="st7" d="M2083.5,1325.1c-0.2-2.7-0.3-5.4-0.5-8c-0.1,0.2-0.2,0.3-0.2,0.5c-15.2-126-132.6-166-134.6-166.7
				c0,0,0,0,0,0c-14.2-6.1-28.5-11.8-42.6-18.2c-14.8-6.6-28.8-13.4-44.2-18.4c10.8,14.3,23.2,27.3,34.4,41.3l3,22.9
				c-1.2-0.5-2.3-1-3.5-1.5c-1.8-0.7-3.6-1.5-5.4-2.2c-8.4-4.3-16.2-9.4-24.2-14.4c-59-36-123.2-65.4-186.5-93.2
				c-10-4-20.7-10-31.6-11.1c-9,5.1-16.9,12.5-24.7,19.3c-17.4,15.8-33.6,33-48.5,51.3c0,0,0,0,0,0c0,0-0.1,0.1-0.2,0.2
				c-0.3,0.4-0.9,1.1-1.9,2.3c-0.1,0.2-0.3,0.3-0.4,0.5c-0.7,0.9-1.6,2-2.6,3.3c-0.4,0.5-0.7,0.9-1.1,1.4c-0.1,0.1-0.1,0.1-0.2,0.2
				c-0.6,0.8-1.3,1.7-2,2.6c-0.2,0.3-0.5,0.6-0.7,1c-0.1,0.1-0.1,0.1-0.1,0.2c-30.4,39.3-123.7,168.4-107.2,249.2c0,0,0,0,0,0
				c0,0,0,0,0,0c2.3,18.6,8.8,36.3,20.8,52c18.1,23.1,49.7,36.4,76.5,46.4c68.5,23.5,142.4,33.5,214.7,32.5
				c57.2,0.3,114.6-7.7,170-21.8c33.3-9.1,69.2-20.8,97.8-40.4c17.6-11.8,30.6-28.3,37.7-48.3c6.4-17.5,8.6-37.1,8.9-56.5l0,0
				C2084.5,1342.4,2084.2,1333.5,2083.5,1325.1z M2019.1,1437.9c-3,2.8-6.3,5.4-10,7.8c-14.5,9.2-31.4,13.9-47.9,18
				c-24.8,6.2-49.9,11.5-75.1,15.8c-26.4,4.6-52.9,8.2-79.5,10.8c-15,1.5-28-6-43.1-6.1c-9.3,0.2-19.1,3.4-28.3,5.3
				c-15.4,3.4-32.7,1.9-48.5,1.1c-34.1-1.8-68.8-8.6-102.2-15.5c-23.1-5-48.4-12.6-65.5-29.9c-6-6.4-11.4-13.3-15.8-20.7
				c0,0,0,0,0-0.1c-0.3-0.7-3.2-7.2-5.8-18.7c-2.5-11.2-4.7-27.2-3.9-47.3c0.5-11.7,2-23.3,4.4-34.8c2.9-13.9,7-27.4,12.1-40.6
				c6.1-15.9,13.7-31.2,22.2-46c10.3-17.8,22-34.8,34.6-51c6.1-7.8,12.2-16,19.1-23.1c7.5-7.8,12.9-17.1,19.4-25.7
				c6.7-8.8,13.6-17.4,21-25.6c8.2-9.1,17.1-17.2,26.3-25.2c7.8-6.9,15.1-0.8,23.3,1.9c47.5,21.6,95.9,42.6,141.9,67.3
				c20.2,11.3,41.2,22.9,59.9,36.6c1.7,1.5,3.6,2.9,5.6,4.2c0.3,0.2,0.6,0.4,0.8,0.7c0,0,0.1,0,0.1-0.1c5,3.1,10.4,5.6,15.3,8.3
				c1.2,0.6,2.4,1.3,3.7,1.4c4,0.3,5-4.9,5-10.1c-0.1-4.3-0.8-8.8-1.2-10.6c-0.2-0.9-0.4-1.8-0.8-2.6c7.2-0.8,14.4-3.4,21.3-5.6
				c3.6-1.1,8.7-2.3,11.6-4.8c24.4,13.8,43,31.5,57.2,51.1c36,49.5,46.1,113.4,43,173.5C2038.6,1413.2,2030.2,1427.5,2019.1,1437.9z
				"/>
		</g>
		<g>
			<path class="st3" d="M1547.9,1260.7c3.9-4.2,7.5-8.7,11.4-12.8c6.5-6.8,13-13.6,19.2-20.6c0.5-0.6,1-1.2,1.7-1.4
				c0.9-0.3,1.8,0.1,2.7,0.5c26.9,12.3,53.7,24.8,80.6,37.2c5.5,2.5,7.2,10.8,8.5,16c-3.7,2.3-10.4-0.3-14.5-1
				c-28.9-4.9-58-9.3-87.1-13.7C1562.9,1263.9,1555.3,1262.7,1547.9,1260.7z"/>
			<ellipse class="st3" cx="1629.8" cy="1341" rx="33" ry="43.9"/>
		</g>
		<g>
			<path class="st3" d="M1988.3,1260.7c-3.9-4.2-7.5-8.7-11.4-12.8c-6.5-6.8-13-13.6-19.2-20.6c-0.5-0.6-1-1.2-1.7-1.4
				c-0.9-0.3-1.8,0.1-2.7,0.5c-26.9,12.3-53.7,24.8-80.6,37.2c-5.5,2.5-7.2,10.8-8.5,16c3.7,2.3,10.4-0.3,14.5-1
				c28.9-4.9,58-9.3,87.1-13.7C1973.3,1263.9,1980.9,1262.7,1988.3,1260.7z"/>
			<ellipse class="st3" cx="1906.4" cy="1341" rx="33" ry="43.9"/>
		</g>
	</g>
	<g>
		<path class="st3" d="M2116.6,1632.1c-6.9-10.6-26.4-36.6-59.4-49.5c-17.9-6.9-35.2-7.8-49.9-7.8l-5.1,0c-18.9,0-37.7,0.1-56.6,0.3
			c-18.5,0.1-37,0.3-55.3,0.3c-43.1-0.1-86-0.1-129-0.1h-249.8c-51.7,0-93.3,22.2-117.2,62.4c-10.6,17.9-15.3,38.5-13.5,59.4
			c0,0.6,1.5,13.6,1.7,15.6c0,0.9,0.1,1.8,0.2,2.6l2.1,19.9c1.2,11.7,2.5,23.5,3.7,34.8c0.4,4.2,0.8,8.5,1.2,12.7
			c0.4,4.7,0.8,9.4,1.3,14.1l8,74.2c1.4,13.8,2.9,27.4,4.2,41.2c0.1,1.5,0.4,3.1,0.7,4.6l9.2,73.2c0.2,1.7,0.8,3.4,1.2,5.1
			c-0.9,5.1-1.1,10.2,0,15.3c4.2,20,14.8,36.9,31.6,50.3c19.4,15.4,43.1,22.9,72.5,22.9c0,0,0.2,0,0.2,0
			c98.9-0.1,197.8-0.1,296.7-0.1l185.7,0c44.1,0,82.6-25,95.7-62c1.1-3.1,1.9-6.3,2.7-10.6c1-4.4,0.9-8.7,0.5-13.1
			c1.8-4.6,3-9.4,3.2-14.5l7.1-73.7c0.1-0.8,0.1-1.6,0.2-2.4c0.1-2.5,0.3-5,0.6-7.9l0.2-2.4c1-9.4,1.9-18.9,3-28.6l0.1-1.2
			c3.3-30.6,6.6-61.2,10-91.6l0.8-7.4c2.1-18.4,4.1-36.7,6.1-55.1C2133.4,1695.5,2136.9,1662.8,2116.6,1632.1z"/>
		<g>
			<g>
				<polygon class="st1" points="1755.8,2008.5 1755.8,2012.8 1753.8,2008.5 				"/>
				<polygon class="st1" points="1766.8,2008.5 1768.7,2008.5 1766.8,2012.8 				"/>
			</g>
			<path class="st1" d="M2052.1,2020.1c-0.4,2-0.6,3.7-1.2,5.2c-6.3,17.8-25,29.8-46,29.8c-160.9,0-321.7-0.1-482.5,0.1
				c-14.2,0-27-2.5-37.8-11c-7.9-6.3-13-14-15.1-24.1H2052.1z"/>
		</g>
		<path class="st1" d="M2075.2,1661.8c-7.7-11.9-20.7-24.5-34.9-30.1c-10.6-4.1-22.6-4.1-34.2-4c-37.4,0-74.8,0.6-112,0.6
			c-43-0.1-85.9-0.1-128.9-0.1h-249.8c-32,0-55.9,12.3-71,37.6c-6.3,10.6-8.6,22.2-7.6,34.2c0.4,3,0.7,6,1,9.1c0,0,0.9,8.5,0.8,8.4
			c0.5,4.9,1,9.6,1.6,14.5l0.3,2.6c1.3,12.5,2.6,25.2,4.1,37.8c0.9,8.9,1.6,17.9,2.5,26.7c2.5,23.6,5.1,47.2,7.6,70.6
			c1.6,15.1,3.1,30.1,4.6,45.2h0.1l9.7,76.5h5.5c14.9,0,29.9,0.1,44.8,0c14.8-0.1,29.5-0.7,44.2-0.7c12.4,0,24.8,0.7,37.4,0.7h58.6
			l0.1,0.1h170.2l0.1-0.1h94.8c9.4,0,18.7-0.1,28.1-0.1c32.4,0,64.8,0.1,97.2,0.2c3.4,0,5.1-1.2,4.8-4.2l0.3-2.1l7.1-73
			c0.1-3.5,0.4-7,0.8-10.5c1-10.3,2.1-20.8,3.3-31.1l0.1-1.3c3.3-30.7,6.7-61.4,10.1-91.9c2.4-20.8,4.7-41.5,6.9-62.3
			C2085.3,1696.8,2086.2,1678.4,2075.2,1661.8z M1471,1684.6c2.1-7.3,5.9-12.3,11-16.7c8.8-7.7,19.5-11,31.8-11h359.1
			c42.4,0,84.8,0.8,127.1,0c4.2-0.1,8.4-0.1,12.5,0.2c18,1.9,32.9,11.4,38.7,26.8c-5.1-2.2-9.4-4.3-13.9-6.2
			c-17.8-7.3-39.9-5-59-5.1c-21.3-0.1-42.7,0-64,0.1h-14.8c-126.3,0-252.5,0.1-378.8,0C1503.1,1672.6,1486.7,1674.6,1471,1684.6z
			 M1730.7,1951.3h-86.1l14-48.1l-23.7-34.2h-43.3l-23.9,82.3h-85l66.8-228.9h85.4l-24.3,83.4h42.9l44.7-36.1l14-47.3h85.4
			l-20.4,69.9l-64.7,48.5l38.7,41L1730.7,1951.3z M2063.6,1758.2l-17.5,60.4h-85.4l8.6-30.2h-82.6l-28.2,97h82.6l8.9-30.7h85.4
			l-17.8,60.9c-1.7,5.5-4.3,10.6-7.8,15.1c-3.7,4.4-7.7,8.2-12.2,11.3c-4.6,3-9.3,5.3-14.1,7c-5,1.6-9.5,2.3-13.9,2.3h-178.3
			c-4.2,0-8.4-0.7-12.4-2.3s-7.5-4-10.2-7c-2.7-3-4.6-6.9-5.6-11.3c-0.9-4.5-0.5-9.6,1.2-15.1l46-157.4c1.7-5.6,4.3-10.6,7.8-15.1
			c3.7-4.5,7.6-8.2,12-11.4c4.4-3,9.1-5.3,14.1-7c5-1.5,9.7-2.3,14-2.3h178.3c4.2,0,8.4,0.8,12.4,2.3c4.1,1.6,7.5,4,10.2,7
			c2.7,3.1,4.6,6.9,5.6,11.4C2065.7,1747.6,2065.3,1752.6,2063.6,1758.2z"/>
		<rect x="1721.6" y="1986" class="st1" width="71.2" height="47.5"/>
	</g>
</g>
</svg>
